<?xml version="1.0" encoding="UTF-8"?>
<svg id="Layer_1" xmlns="http://www.w3.org/2000/svg" xmlns:xlink="http://www.w3.org/1999/xlink" version="1.1" viewBox="0 0 217 237">
  <!-- Generator: Adobe Illustrator 29.4.0, SVG Export Plug-In . SVG Version: 2.1.0 Build 152)  -->
  <defs>
    <style>
      .st0 {
        mask: url(#mask);
      }

      .st1 {
        fill: #b7c1db;
      }

      .st1, .st2, .st3, .st4, .st5, .st6, .st7, .st8, .st9 {
        fill-rule: evenodd;
      }

      .st2 {
        fill: #1f3140;
      }

      .st10 {
        mask: url(#mask-102);
      }

      .st3, .st11 {
        fill: #fff;
      }

      .st12 {
        fill: #4a312c;
      }

      .st13 {
        fill: #ffdbb4;
      }

      .st14 {
        fill: #8a4ca8;
      }

      .st15 {
        mask: url(#mask-3);
      }

      .st16 {
        mask: url(#mask-5);
      }

      .st17 {
        mask: url(#mask-7);
      }

      .st18 {
        mask: url(#mask-1);
      }

      .st19 {
        mask: url(#mask-9);
      }

      .st20 {
        fill: #ff4f6d;
      }

      .st4 {
        fill: #f4f4f4;
      }

      .st21 {
        fill: #972dc2;
      }

      .st5 {
        fill-opacity: .1;
      }

      .st6 {
        fill-opacity: .16;
      }

      .st7 {
        fill-opacity: .7;
      }

      .st8 {
        fill-opacity: .6;
      }

      .st22 {
        mask: url(#mask-83);
      }

      .st23 {
        mask: url(#mask-62);
      }

      .st24 {
        mask: url(#mask-41);
      }

      .st25 {
        mask: url(#mask-21);
      }

      .st9 {
        fill: #d0c6ac;
      }
    </style>
    <mask id="mask" x=".8" y="21" width="216.45" height="216" maskUnits="userSpaceOnUse">
      <g id="mask-2">
        <circle id="path-11" data-name="path-1" class="st11" cx="108.8" cy="129" r="108"/>
      </g>
    </mask>
    <mask id="mask-1" x="-10.1" y="-15" width="239.11" height="252.75" maskUnits="userSpaceOnUse">
      <g id="mask-4">
        <path id="path-3" class="st3" d="M-10,129V-15h237.6v144h-10.8c0,59.65-48.35,108-108,108S.8,188.65.8,129h-10.8Z"/>
      </g>
    </mask>
    <mask id="mask-21" data-name="mask-2" x="-10" y="17.4" width="238.38" height="220.35" maskUnits="userSpaceOnUse">
      <g id="mask-6">
        <path id="path-51" data-name="path-5" class="st3" d="M108.8,17.4c27.84,0,50.4,22.56,50.4,50.4v5.55c5.11.86,9,5.3,9,10.65v12.6c0,5.45-4.03,9.95-9.28,10.69-1.86,17.82-13.01,32.89-28.52,40.26v16.55s3.6,0,3.6,0c35.79,0,64.8,29.01,64.8,64.8v8.1H18.8v-8.1c0-35.79,29.01-64.8,64.8-64.8h3.6v-16.55c-15.51-7.37-26.66-22.43-28.53-40.26-5.24-.74-9.27-5.25-9.27-10.69v-12.6c0-5.35,3.89-9.79,9-10.65v-5.55c0-27.84,22.56-50.4,50.4-50.4Z"/>
      </g>
    </mask>
    <mask id="mask-3" x="18.8" y="17.4" width="180" height="219.6" maskUnits="userSpaceOnUse">
      <g id="mask-61" data-name="mask-6">
        <path id="path-52" data-name="path-5" class="st3" d="M108.8,17.4c27.84,0,50.4,22.56,50.4,50.4v5.55c5.11.86,9,5.3,9,10.65v12.6c0,5.45-4.03,9.95-9.28,10.69-1.86,17.82-13.01,32.89-28.52,40.26v16.55s3.6,0,3.6,0c35.79,0,64.8,29.01,64.8,64.8v8.1H18.8v-8.1c0-35.79,29.01-64.8,64.8-64.8h3.6v-16.55c-15.51-7.37-26.66-22.43-28.53-40.26-5.24-.74-9.27-5.25-9.27-10.69v-12.6c0-5.35,3.89-9.79,9-10.65v-5.55c0-27.84,22.56-50.4,50.4-50.4Z"/>
      </g>
    </mask>
    <mask id="mask-41" data-name="mask-4" x="-10" y="138" width="238.49" height="99" maskUnits="userSpaceOnUse">
      <g id="mask-8">
        <path id="path-71" data-name="path-7" class="st3" d="M130.4,149.76c16.29,1.82,28.8,6.83,28.8,19.81v-.39c23.27,9.83,39.6,32.87,39.6,59.72v8.1H18.8v-8.1c0-26.85,16.33-49.89,39.61-59.72.25-12.68,12.67-17.61,28.79-19.42v17.04c0,11.93,9.67,21.6,21.6,21.6s21.6-9.67,21.6-21.6h0v-17.04Z"/>
      </g>
    </mask>
    <mask id="mask-5" x="18.8" y="149.76" width="180" height="87.24" maskUnits="userSpaceOnUse">
      <g id="mask-81" data-name="mask-8">
        <path id="path-72" data-name="path-7" class="st3" d="M130.4,149.76c16.29,1.82,28.8,6.83,28.8,19.81v-.39c23.27,9.83,39.6,32.87,39.6,59.72v8.1H18.8v-8.1c0-26.85,16.33-49.89,39.61-59.72.25-12.68,12.67-17.61,28.79-19.42v17.04c0,11.93,9.67,21.6,21.6,21.6s21.6-9.67,21.6-21.6h0v-17.04Z"/>
      </g>
    </mask>
    <mask id="mask-62" data-name="mask-6" x="18.8" y="149.45" width="180" height="87.55" maskUnits="userSpaceOnUse">
      <g id="mask-82" data-name="mask-8">
        <path id="path-73" data-name="path-7" class="st3" d="M130.4,149.76c16.29,1.82,28.8,6.83,28.8,19.81v-.39c23.27,9.83,39.6,32.87,39.6,59.72v8.1H18.8v-8.1c0-26.85,16.33-49.89,39.61-59.72.25-12.68,12.67-17.61,28.79-19.42v17.04c0,11.93,9.67,21.6,21.6,21.6s21.6-9.67,21.6-21.6h0v-17.04Z"/>
      </g>
    </mask>
    <mask id="mask-7" x="91.8" y="107.4" width="34.01" height="27" maskUnits="userSpaceOnUse">
      <g id="mask-10">
        <path id="path-91" data-name="path-9" class="st3" d="M91.81,119.22c.95,8.54,8.2,15.18,16.99,15.18s16.09-6.68,17-15.26c.07-.69-.7-1.84-1.66-1.84h-30.56c-.97,0-1.87,1.06-1.77,1.92Z"/>
      </g>
    </mask>
    <mask id="mask-83" data-name="mask-8" x="91.8" y="117.3" width="34.01" height="29.7" maskUnits="userSpaceOnUse">
      <g id="mask-101" data-name="mask-10">
        <path id="path-92" data-name="path-9" class="st3" d="M91.81,119.22c.95,8.54,8.2,15.18,16.99,15.18s16.09-6.68,17-15.26c.07-.69-.7-1.84-1.66-1.84h-30.56c-.97,0-1.87,1.06-1.77,1.92Z"/>
      </g>
    </mask>
    <mask id="mask-9" x="-10.1" y="-15" width="239.11" height="252.41" maskUnits="userSpaceOnUse">
      <g id="mask-12">
        <rect id="path-11" class="st11" x="-10" y="-15" width="237.6" height="252"/>
      </g>
    </mask>
    <mask id="mask-102" data-name="mask-10" x="-10.1" y="-15" width="239.11" height="252.41" maskUnits="userSpaceOnUse">
      <g id="mask-14">
        <path id="path-131" data-name="path-13" class="st3" d="M151.13,20.93c-2.48-2.54-5.37-4.69-8.17-6.85-.62-.48-1.25-.94-1.85-1.44-.14-.11-1.55-1.12-1.72-1.49-.41-.89-.17-.2-.11-1.26.07-1.35,2.82-5.16.77-6.03-.9-.38-2.51.64-3.38.98-1.69.66-3.41,1.22-5.16,1.71.84-1.67,2.44-5.02-.57-4.12-2.34.7-4.52,2.49-6.88,3.33.78-1.28,3.89-5.23,1.08-5.45-.88-.07-3.42,1.57-4.37,1.92-2.82,1.05-5.71,1.73-8.67,2.26-10.08,1.82-21.86,1.3-31.19,5.89-7.19,3.54-14.29,9.03-18.44,16.01-4,6.74-5.5,14.11-6.34,21.83-.61,5.67-.66,11.52-.38,17.21.09,1.86.3,10.45,3.01,7.85,1.35-1.3,1.34-6.53,1.68-8.3.68-3.52,1.33-7.06,2.45-10.47,1.99-6.01,4.33-8.81,9.27-12.95,3.17-2.66,5.4-6.25,8.44-8.93,1.36-1.2.32-1.08,2.52-.92,1.47.11,2.95.15,4.43.19,3.42.09,6.84.07,10.26.08,6.88.02,13.73.12,20.61-.24,3.06-.16,6.12-.25,9.17-.53,1.7-.16,4.72-1.25,6.12-.42,1.28.76,2.61,3.25,3.53,4.27,2.18,2.41,4.77,4.25,7.31,6.23,5.3,4.12,7.98,5.7,9.59,12.14,1.61,6.42,1.16,12.37,3.14,18.69.35,1.11,1.27,3.02,2.41,1.31.21-.32.16-2.07.16-3.08,0-4.07,1.03-7.12,1.02-11.21-.05-12.45-.45-28.68-9.76-38.19Z"/>
      </g>
    </mask>
  </defs>
  <g id="Website">
    <g id="mf-avatar">
      <g id="Circle">
        <g id="Circle-Background">
          <circle id="path-1" class="st21" cx="108.8" cy="129" r="108"/>
        </g>
        <g class="st0">
          <g id="_xD83D__xDD8D_-Circle-Color">
            <rect id="_xD83D__xDD8D_Color" class="st14" x=".8" y="21" width="216.45" height="216"/>
          </g>
        </g>
      </g>
      <g class="st18">
        <g id="Avataaar">
          <g id="Body">
            <path id="path-5" class="st9" d="M108.8,17.4c27.84,0,50.4,22.56,50.4,50.4v5.55c5.11.86,9,5.3,9,10.65v12.6c0,5.45-4.03,9.95-9.28,10.69-1.86,17.82-13.01,32.89-28.52,40.26v16.55s3.6,0,3.6,0c35.79,0,64.8,29.01,64.8,64.8v8.1H18.8v-8.1c0-35.79,29.01-64.8,64.8-64.8h3.6v-16.55c-15.51-7.37-26.66-22.43-28.53-40.26-5.24-.74-9.27-5.25-9.27-10.69v-12.6c0-5.35,3.89-9.79,9-10.65v-5.55c0-27.84,22.56-50.4,50.4-50.4Z"/>
            <g class="st25">
              <g id="Skin_x2F__xD83D__xDC76__xD83C__xDFFB_-05-Pale">
                <g id="Color">
                  <rect class="st13" x="-10" y="17.4" width="238.38" height="220.35"/>
                </g>
              </g>
            </g>
            <g class="st15">
              <path id="Neck-Shadow" class="st5" d="M58.4,102c0,27.84,22.56,50.4,50.4,50.4s50.4-22.56,50.4-50.4h0v7.2c0,27.84-22.56,50.4-50.4,50.4s-50.4-22.56-50.4-50.4v-7.2Z"/>
            </g>
          </g>
          <g id="Clothing_x2F_Hoodie">
            <g id="Hoodie">
              <path id="path-7" class="st1" d="M130.4,149.76c16.29,1.82,28.8,6.83,28.8,19.81v-.39c23.27,9.83,39.6,32.87,39.6,59.72v8.1H18.8v-8.1c0-26.85,16.33-49.89,39.61-59.72.25-12.68,12.67-17.61,28.79-19.42v17.04c0,11.93,9.67,21.6,21.6,21.6s21.6-9.67,21.6-21.6h0v-17.04Z"/>
            </g>
            <g class="st24">
              <g id="Color_x2F_Palette_x2F_Slate">
                <rect id="_xD83D__xDD8D_Color1" data-name="_xD83D__xDD8D_Color" class="st11" x="-10" y="138" width="238.49" height="99"/>
              </g>
            </g>
            <g class="st16">
              <path id="Straps" class="st4" d="M81.8,193.57v43.43s-6.3,0-6.3,0v-46.67c1.98,1.18,4.09,2.26,6.3,3.23ZM142.1,190.33v36.32c0,1.74-1.41,3.15-3.15,3.15s-3.15-1.41-3.15-3.15v-33.09c2.21-.97,4.32-2.05,6.3-3.23Z"/>
            </g>
            <g class="st23">
              <path id="Shadow" class="st6" d="M145.73,149.45c13.55,2.56,22.92,7.67,22.92,17.63,0,17.74-29.73,32.12-59.85,32.12s-59.85-14.38-59.85-32.12c0-9.96,9.37-15.06,22.92-17.63-8.18,3.01-13.47,8.08-13.47,16.52,0,18.35,25.04,33.23,50.4,33.23s50.4-14.88,50.4-33.23c0-8.26-5.07-13.29-12.96-16.33l-.51-.19Z"/>
            </g>
          </g>
          <g id="Face">
            <g id="Mouth_x2F_Smile">
              <g id="Mouth">
                <path id="path-9" class="st7" d="M91.81,119.22c.95,8.54,8.2,15.18,16.99,15.18s16.09-6.68,17-15.26c.07-.69-.7-1.84-1.66-1.84h-30.56c-.97,0-1.87,1.06-1.77,1.92Z"/>
              </g>
              <g class="st17">
                <path id="Teeth" class="st3" d="M99.8,107.4h18.9c2.49,0,4.5,2.01,4.5,4.5v5.4c0,2.49-2.01,4.5-4.5,4.5h-18.9c-2.49,0-4.5-2.01-4.5-4.5v-5.4c0-2.49,2.01-4.5,4.5-4.5Z"/>
              </g>
              <g class="st22">
                <g id="Tongue">
                  <g>
                    <circle class="st20" cx="104.3" cy="137.1" r="9.9"/>
                    <circle class="st20" cx="113.3" cy="137.1" r="9.9"/>
                  </g>
                </g>
              </g>
            </g>
            <g id="Nose_x2F_Default">
              <path id="Nose" class="st6" d="M98,102c0,3.98,4.84,7.2,10.8,7.2h0c5.96,0,10.8-3.22,10.8-7.2"/>
            </g>
            <g id="Eyes_x2F_Happy-_xD83D__xDE01_">
              <path id="Squint" class="st8" d="M72.94,86.2c1.66-3.42,5.4-5.8,9.75-5.8s8.07,2.37,9.74,5.77c.5,1.01-.21,1.84-.92,1.22-2.21-1.9-5.34-3.08-8.81-3.08s-6.41,1.11-8.6,2.91c-.8.66-1.64-.01-1.15-1.01Z"/>
              <path id="Squint1" data-name="Squint" class="st8" d="M125.14,86.2c1.66-3.42,5.4-5.8,9.75-5.8s8.07,2.37,9.74,5.77c.5,1.01-.21,1.84-.92,1.22-2.21-1.9-5.34-3.08-8.81-3.08s-6.41,1.11-8.6,2.91c-.8.66-1.64-.01-1.15-1.01Z"/>
            </g>
            <g id="Eyebrow_x2F_Natural_x2F_Default-Natural">
              <path id="Eyebrow" class="st8" d="M82.29,64.33c-5.23.24-13.68,4.04-13.46,9.31,0,.17.26.25.38.12,2.48-2.66,20.08-5.35,26.28-3.93.57.13,1-.43.64-.83-3.08-3.46-9.17-4.88-13.85-4.66"/>
              <path id="Eyebrow1" data-name="Eyebrow" class="st8" d="M136.21,64.33c5.23.24,13.68,4.04,13.46,9.31,0,.17-.26.25-.38.12-2.48-2.66-20.08-5.35-26.28-3.93-.57.13-1-.43-.64-.83,3.08-3.46,9.17-4.88,13.85-4.66"/>
            </g>
          </g>
          <g id="Top">
            <g class="st19">
              <g>
                <g id="Short-Hair">
                  <path id="path-13" class="st2" d="M151.13,20.93c-2.48-2.54-5.37-4.69-8.17-6.85-.62-.48-1.25-.94-1.85-1.44-.14-.11-1.55-1.12-1.72-1.49-.41-.89-.17-.2-.11-1.26.07-1.35,2.82-5.16.77-6.03-.9-.38-2.51.64-3.38.98-1.69.66-3.41,1.22-5.16,1.71.84-1.67,2.44-5.02-.57-4.12-2.34.7-4.52,2.49-6.88,3.33.78-1.28,3.89-5.23,1.08-5.45-.88-.07-3.42,1.57-4.37,1.92-2.82,1.05-5.71,1.73-8.67,2.26-10.08,1.82-21.86,1.3-31.19,5.89-7.19,3.54-14.29,9.03-18.44,16.01-4,6.74-5.5,14.11-6.34,21.83-.61,5.67-.66,11.52-.38,17.21.09,1.86.3,10.45,3.01,7.85,1.35-1.3,1.34-6.53,1.68-8.3.68-3.52,1.33-7.06,2.45-10.47,1.99-6.01,4.33-8.81,9.27-12.95,3.17-2.66,5.4-6.25,8.44-8.93,1.36-1.2.32-1.08,2.52-.92,1.47.11,2.95.15,4.43.19,3.42.09,6.84.07,10.26.08,6.88.02,13.73.12,20.61-.24,3.06-.16,6.12-.25,9.17-.53,1.7-.16,4.72-1.25,6.12-.42,1.28.76,2.61,3.25,3.53,4.27,2.18,2.41,4.77,4.25,7.31,6.23,5.3,4.12,7.98,5.7,9.59,12.14,1.61,6.42,1.16,12.37,3.14,18.69.35,1.11,1.27,3.02,2.41,1.31.21-.32.16-2.07.16-3.08,0-4.07,1.03-7.12,1.02-11.21-.05-12.45-.45-28.68-9.76-38.19Z"/>
                </g>
                <g class="st10">
                  <g id="Color_x2F_Hair_x2F_Brown-Dark">
                    <g id="Color1" data-name="Color">
                      <rect class="st12" x="-10.1" y="-15" width="239.11" height="252.41"/>
                    </g>
                  </g>
                </g>
              </g>
            </g>
          </g>
        </g>
      </g>
    </g>
  </g>
</svg>